# xmcd
#
# Track frame offsets: 
#        150
#        9636
#        26298
#        36538
#        50487
#        65224
#        75438
#        84156
#        102722
#        118597
#        131203
#        139667
#
# Disc length: 1989 seconds
#
# Revision: 0
# Processed by: cddbd v1.5.2PL0 Copyright (c) Steve Scherf et al.
# Submitted via: ExactAudioCopy v0.99pb4
#
DISCID=a307c30c
DTITLE=Heather Stewart Trio - Get Your Fingers Off It!
DYEAR=2010
DGENRE=Blues
TTITLE0=Get Your Fingers Off It
TTITLE1=Wayward Woman
TTITLE2=Deep Blue Sea
TTITLE3=Travelling Railroad Man
TTITLE4=Baby I'm Crazy 'Bout You
TTITLE5=Sitting On Top Of The World
TTITLE6=Alma Waltz
TTITLE7=Careless Love
TTITLE8=Ain't No Use You Trying To Tell On Me (I Know Something On You
TTITLE8=)
TTITLE9=The Lonesome Road
TTITLE10=Long Loving Man
TTITLE11=Get Your Fingers Off It - Reprise
EXTD=
EXTT0=
EXTT1=
EXTT2=
EXTT3=
EXTT4=
EXTT5=
EXTT6=
EXTT7=
EXTT8=
EXTT9=
EXTT10=
EXTT11=
PLAYORDER=
